<svg width="164" height="142" viewBox="0 0 164 142" fill="none" xmlns="http://www.w3.org/2000/svg">
<path opacity="0.1" fill-rule="evenodd" clip-rule="evenodd" d="M94.038 18.8C83.664 18.44 73.785 15.1 64.35 11.449C54.915 7.79802 45.571 3.74902 35.45 1.81302C28.938 0.568017 21.489 0.392017 16.243 3.87302C11.193 7.22902 9.56098 13.005 8.68398 18.373C8.02398 22.409 7.63598 26.658 9.44398 30.436C10.701 33.06 12.929 35.265 14.47 37.779C19.835 46.523 16.042 57.306 10.23 65.844C7.50498 69.85 4.33998 73.674 2.23498 77.934C0.129981 82.194 -0.842019 87.082 0.998981 91.434C2.82298 95.748 7.17098 98.983 11.882 101.26C21.449 105.886 32.719 107.209 43.716 107.96C68.052 109.62 92.516 108.901 116.916 108.182C125.946 107.915 135.016 107.645 143.898 106.253C148.831 105.48 153.924 104.253 157.506 101.291C162.019 97.7255 163.147 91.3461 160.131 86.449C155.021 78.541 140.897 76.577 137.321 68.09C135.356 63.418 137.374 58.215 140.232 53.881C146.361 44.587 156.632 36.433 157.174 25.81C157.546 18.51 152.608 11.21 144.974 7.75302C136.974 4.13502 125.874 4.58902 119.974 10.58C113.882 16.744 103.197 19.121 94.038 18.8Z" fill="#34C47C"/>
<path fill-rule="evenodd" clip-rule="evenodd" d="M123.707 115.239H100.469L60.888 119.085L21 115.239V21L60.722 23.884L101.302 21L141.002 26.449L139.984 98.818L123.707 115.239Z" fill="url(#paint0_linear)"/>
<path fill-rule="evenodd" clip-rule="evenodd" d="M122.95 113.926H100.22L61.504 117.669L22.489 113.926V22.2358L61.343 25.0428L101.035 22.2358L139.864 27.5358L138.864 97.9508L122.95 113.926Z" fill="white"/>
<path fill-rule="evenodd" clip-rule="evenodd" d="M122.95 113.926H100.22L61.504 117.669L22.489 113.926V22.2358L61.343 25.0428L101.035 22.2358L139.864 27.5358L138.864 97.9508L122.95 113.926Z" fill="white"/>
<path fill-rule="evenodd" clip-rule="evenodd" d="M123.078 111.432H99.138L62.622 114.962L25.822 111.432V24.9448L62.471 27.5938L99.91 24.9448L136.535 29.9448V97.8978L123.078 111.432Z" fill="#34C47C"/>
<path opacity="0.1" fill-rule="evenodd" clip-rule="evenodd" d="M62.469 114.962L99.116 111.432V24.9448L62.469 27.5938" fill="black"/>
<path fill-rule="evenodd" clip-rule="evenodd" d="M121.383 113.786L121.665 95.9341L138.865 96.6281L121.383 113.786Z" fill="url(#paint1_linear)"/>
<path fill-rule="evenodd" clip-rule="evenodd" d="M122.951 113.785L123.207 97.311L138.868 97.952L122.951 113.785Z" fill="white"/>
<path fill-rule="evenodd" clip-rule="evenodd" d="M83.7392 59.4028C86.1587 59.4028 88.1202 57.5143 88.1202 55.1848C88.1202 52.8553 86.1587 50.9668 83.7392 50.9668C81.3196 50.9668 79.3582 52.8553 79.3582 55.1848C79.3582 57.5143 81.3196 59.4028 83.7392 59.4028Z" fill="url(#paint2_linear)"/>
<path fill-rule="evenodd" clip-rule="evenodd" d="M164 134.375L84.5464 89.6857L104.726 21.589L97.8575 18.8236L88.0802 51.8252L10.1577 8L7 15.6301L85.6909 59.8862L67.726 120.509L74.5942 123.275L82.1552 97.7496L160.84 142L164 134.375Z" fill="white"/>
<path fill-rule="evenodd" clip-rule="evenodd" d="M98.2301 56.1598C98.2301 63.8688 83.7381 85.6868 83.7381 85.6868C83.7381 85.6868 69.2471 63.8688 69.2471 56.1598C69.5146 48.3495 75.9237 42.1562 83.7386 42.1562C91.5535 42.1562 97.9625 48.3495 98.2301 56.1598Z" fill="url(#paint3_linear)"/>
<path fill-rule="evenodd" clip-rule="evenodd" d="M96.033 56.4179C96.033 63.3999 83.378 83.1819 83.378 83.1819C83.378 83.1819 70.724 63.4049 70.724 56.4179C70.5945 51.8137 72.9769 47.5027 76.9441 45.1624C80.9113 42.8222 85.8367 42.8222 89.8039 45.1624C93.7711 47.5027 96.1535 51.8137 96.024 56.4179H96.033Z" fill="#FF5252"/>
<path fill-rule="evenodd" clip-rule="evenodd" d="M83.3831 59.3638C85.495 59.3638 87.2071 57.6518 87.2071 55.5398C87.2071 53.4279 85.495 51.7158 83.3831 51.7158C81.2711 51.7158 79.5591 53.4279 79.5591 55.5398C79.5591 57.6518 81.2711 59.3638 83.3831 59.3638Z" fill="white"/>
<defs>
<linearGradient id="paint0_linear" x1="141.002" y1="119.085" x2="141.002" y2="21" gradientUnits="userSpaceOnUse">
<stop stop-color="#808080" stop-opacity="0.251"/>
<stop offset="0.54" stop-color="#808080" stop-opacity="0.122"/>
<stop offset="1" stop-color="#808080" stop-opacity="0.102"/>
</linearGradient>
<linearGradient id="paint1_linear" x1="138.865" y1="113.786" x2="138.865" y2="95.9341" gradientUnits="userSpaceOnUse">
<stop stop-opacity="0.122"/>
<stop offset="0.55" stop-opacity="0.09"/>
<stop offset="1" stop-opacity="0.02"/>
</linearGradient>
<linearGradient id="paint2_linear" x1="88.1202" y1="59.4028" x2="88.1202" y2="50.9668" gradientUnits="userSpaceOnUse">
<stop stop-opacity="0.122"/>
<stop offset="0.55" stop-opacity="0.09"/>
<stop offset="1" stop-opacity="0.02"/>
</linearGradient>
<linearGradient id="paint3_linear" x1="-nan" y1="-nan" x2="-nan" y2="-nan" gradientUnits="userSpaceOnUse">
<stop stop-opacity="0.122"/>
<stop offset="0.55" stop-opacity="0.09"/>
<stop offset="1" stop-opacity="0.02"/>
</linearGradient>
</defs>
</svg>
